<svg width="54" height="54" viewBox="0 0 54 54" fill="none" xmlns="http://www.w3.org/2000/svg">
<g clip-path="url(#clip0_1_886)">
<path d="M23.625 37.125H30.375V43.875H23.625V37.125ZM37.125 13.5C38.0201 13.5 38.8785 13.8556 39.5115 14.4885C40.1444 15.1215 40.5 15.9799 40.5 16.875V27L30.375 33.75H23.625V30.375L33.75 23.625V20.25H16.875V13.5H37.125ZM27 5.0625C21.141 5.0625 15.6296 7.344 11.4885 11.4885C7.34737 15.633 5.0625 21.141 5.0625 27C5.0625 32.859 7.344 38.3704 11.4885 42.5115C15.633 46.6526 21.141 48.9375 27 48.9375C32.859 48.9375 38.3704 46.656 42.5115 42.5115C46.6526 38.367 48.9375 32.859 48.9375 27C48.9375 21.141 46.656 15.6296 42.5115 11.4885C38.367 7.34737 32.859 5.0625 27 5.0625ZM27 0C34.1608 0 41.0284 2.84464 46.0919 7.90812C51.1554 12.9716 54 19.8392 54 27C54 34.1608 51.1554 41.0284 46.0919 46.0919C41.0284 51.1554 34.1608 54 27 54C19.8392 54 12.9716 51.1554 7.90812 46.0919C2.84464 41.0284 0 34.1608 0 27C0 19.8392 2.84464 12.9716 7.90812 7.90812C12.9716 2.84464 19.8392 0 27 0Z" fill="black"/>
</g>
<defs>
<clipPath id="clip0_1_886">
<rect width="54" height="54" fill="white"/>
</clipPath>
</defs>
</svg>
